<svg width="66" height="66" viewBox="0 0 66 66" fill="none" xmlns="http://www.w3.org/2000/svg">
<g clip-path="url(#clip0_1_28)">
<path d="M33.0001 64.7307C50.5245 64.7307 64.7309 50.5244 64.7309 33C64.7309 15.4755 50.5245 1.26917 33.0001 1.26917C15.4756 1.26917 1.26929 15.4755 1.26929 33C1.26929 50.5244 15.4756 64.7307 33.0001 64.7307Z" fill="#F80423"/>
<path d="M33 66C24.1854 66 15.8984 62.5674 9.66539 56.3346C3.43239 50.1019 0 41.8147 0 33C0 24.1853 3.43264 15.8984 9.66539 9.66539C15.8981 3.43239 24.1854 0 33 0C41.8146 0 50.1016 3.43264 56.3346 9.66539C62.5676 15.8981 66 24.1853 66 33C66 41.8147 62.5674 50.1016 56.3346 56.3346C50.1019 62.5676 41.8146 66 33 66ZM33 2.53842C16.2034 2.53842 2.53842 16.2035 2.53842 33C2.53842 49.7965 16.2034 63.4616 33 63.4616C49.7966 63.4616 63.4616 49.7965 63.4616 33C63.4616 16.2035 49.7966 2.53842 33 2.53842Z" fill="black"/>
<path d="M54.9897 21.5769C54.5471 21.5769 54.1188 21.3448 53.886 20.936C53.8794 20.9247 53.8731 20.9131 53.8672 20.902C53.5372 20.2835 53.7713 19.5145 54.3898 19.1847C54.9979 18.8605 55.7509 19.0812 56.0896 19.6758C56.0962 19.6873 56.1027 19.6989 56.1086 19.7101C56.4386 20.3286 56.2045 21.0975 55.586 21.4274C55.3955 21.5287 55.1912 21.5769 54.9897 21.5769Z" fill="black"/>
<path d="M52.3261 17.8093C51.9672 17.8093 51.6106 17.658 51.3595 17.3636C46.7657 11.975 40.0739 8.88461 32.9999 8.88461C32.2991 8.88461 31.7307 8.31639 31.7307 7.6154C31.7307 6.91441 32.2991 6.34619 32.9999 6.34619C40.8185 6.34619 48.2145 9.76169 53.2913 15.7168C53.7461 16.2502 53.6823 17.0513 53.1487 17.5061C52.91 17.7097 52.6173 17.8093 52.3261 17.8093Z" fill="black"/>
</g>
<defs>
<clipPath id="clip0_1_28">
<rect width="66" height="66" fill="white"/>
</clipPath>
</defs>
</svg>
