<svg width="66" height="66" viewBox="0 0 66 66" fill="none" xmlns="http://www.w3.org/2000/svg">
<g filter="url(#filter0_d_1_20)">
<rect x="12" y="12" width="42" height="42" rx="2" fill="#6BC945"/>
<rect x="9.5" y="9.5" width="47" height="47" rx="4.5" stroke="#7A7A7A" stroke-width="5"/>
</g>
<path d="M30.25 43L29.85 39.8C29.6333 39.7167 29.429 39.6167 29.237 39.5C29.045 39.3833 28.8576 39.2583 28.675 39.125L25.7 40.375L22.95 35.625L25.525 33.675C25.5083 33.5583 25.5 33.4457 25.5 33.337V32.663C25.5 32.5543 25.5083 32.4417 25.525 32.325L22.95 30.375L25.7 25.625L28.675 26.875C28.8583 26.7417 29.05 26.6167 29.25 26.5C29.45 26.3833 29.65 26.2833 29.85 26.2L30.25 23H35.75L36.15 26.2C36.3666 26.2833 36.571 26.3833 36.763 26.5C36.955 26.6167 37.1423 26.7417 37.325 26.875L40.2999 25.625L43.0499 30.375L40.475 32.325C40.4916 32.4417 40.5 32.5543 40.5 32.663V33.337C40.5 33.4457 40.4833 33.5583 40.45 33.675L43.025 35.625L40.275 40.375L37.325 39.125C37.1416 39.2583 36.95 39.3833 36.75 39.5C36.55 39.6167 36.35 39.7167 36.15 39.8L35.75 43H30.25ZM33.05 36.5C34.0166 36.5 34.8416 36.1583 35.525 35.475C36.2083 34.7917 36.55 33.9667 36.55 33C36.55 32.0333 36.2083 31.2083 35.525 30.525C34.8416 29.8417 34.0166 29.5 33.05 29.5C32.0666 29.5 31.2373 29.8417 30.562 30.525C29.8866 31.2083 29.5493 32.0333 29.55 33C29.55 33.9667 29.8873 34.7917 30.562 35.475C31.2366 36.1583 32.066 36.5 33.05 36.5Z" fill="black"/>
<defs>
<filter id="filter0_d_1_20" x="0" y="0" width="66" height="66" filterUnits="userSpaceOnUse" color-interpolation-filters="sRGB">
<feFlood flood-opacity="0" result="BackgroundImageFix"/>
<feColorMatrix in="SourceAlpha" type="matrix" values="0 0 0 0 0 0 0 0 0 0 0 0 0 0 0 0 0 0 127 0" result="hardAlpha"/>
<feMorphology radius="7" operator="dilate" in="SourceAlpha" result="effect1_dropShadow_1_20"/>
<feOffset/>
<feComposite in2="hardAlpha" operator="out"/>
<feColorMatrix type="matrix" values="0 0 0 0 0 0 0 0 0 0 0 0 0 0 0 0 0 0 1 0"/>
<feBlend mode="normal" in2="BackgroundImageFix" result="effect1_dropShadow_1_20"/>
<feBlend mode="normal" in="SourceGraphic" in2="effect1_dropShadow_1_20" result="shape"/>
</filter>
</defs>
</svg>
